# Blender 4.3.2
# www.blender.org
mtllib mypaths_slope_long4x.mtl
o Cube
v -0.500000 -0.500000 -3.500000
v 0.500000 -0.500000 -3.500000
v 0.500000 -0.500000 0.500000
v -0.500000 -0.500000 0.500000
v 0.500000 0.500000 0.500000
v -0.500000 0.500000 0.500000
v 0.000000 -0.500000 -3.500000
v -0.500000 -0.500000 -1.500000
v 0.500000 -0.500000 -1.500000
v 0.000000 -0.500000 0.500000
v 0.500000 0.000000 0.500000
v -0.500000 0.000000 0.500000
v 0.500000 -0.000000 -1.499999
v 0.000000 0.500000 0.500000
v -0.500000 -0.000000 -1.500000
v 0.000000 -0.500000 -1.500000
v 0.000000 -0.000000 -1.500000
v 0.000000 0.000000 0.500000
vn -0.0000 -1.0000 -0.0000
vn -0.0000 0.9701 -0.2425
vn -0.0000 -0.0000 1.0000
vn 1.0000 -0.0000 -0.0000
vn -1.0000 -0.0000 -0.0000
vt 0.372795 0.627675
vt 0.249339 0.627675
vt 0.249339 0.257306
vt 0.372795 0.257306
vt 0.125883 0.627675
vt 0.125883 0.998043
vt 0.002427 0.998043
vt 0.002427 0.627675
vt 0.619708 0.380763
vt 0.619708 0.257306
vt 0.743164 0.257306
vt 0.743164 0.380763
vt 0.990076 0.751131
vt 0.743164 0.874587
vt 0.743164 0.751131
vt 0.743164 0.627675
vt 0.990076 0.627675
vt 0.496252 0.627675
vt 0.496252 0.257306
vt 0.496252 0.998043
vt 0.372795 0.998043
vt 0.249339 0.998043
vt 0.125883 0.257306
vt 0.002427 0.257306
vt 0.619708 0.504219
vt 0.743164 0.504219
vt 0.496252 0.504219
vt 0.496252 0.380763
vt 0.496252 0.874587
vt 0.496252 0.751131
vt 0.990076 0.504219
s 1
usemtl Material.001
f 16/1/1 9/2/1 3/3/1 10/4/1
f 17/5/2 14/6/2 5/7/2 13/8/2
f 18/9/3 14/10/3 6/11/3 12/12/3
f 2/13/4 13/14/4 9/15/4
f 6/13/5 15/16/5 12/17/5
f 8/18/1 16/1/1 10/4/1 4/19/1
f 1/20/1 7/21/1 16/1/1 8/18/1
f 7/21/1 2/22/1 9/2/1 16/1/1
f 7/23/2 17/5/2 13/8/2 2/24/2
f 1/3/2 15/2/2 17/5/2 7/23/2
f 15/2/2 6/22/2 14/6/2 17/5/2
f 10/25/3 18/9/3 12/12/3 4/26/3
f 3/27/3 11/28/3 18/9/3 10/25/3
f 11/28/3 5/19/3 14/10/3 18/9/3
f 9/15/4 11/29/4 3/30/4
f 9/15/4 13/14/4 11/29/4
f 13/14/4 5/20/4 11/29/4
f 12/17/5 8/26/5 4/31/5
f 12/17/5 15/16/5 8/26/5
f 15/16/5 1/27/5 8/26/5
